<?xml version="1.0" encoding="UTF-8"?>
<svg version="1.1" viewBox="0 0 1024 1024" width="1024" height="1024" xmlns="http://www.w3.org/2000/svg">
<path transform="translate(510,240)" d="m0 0 7 1 20 14 12 8 54 37 8 5 1-33 3-3h23l25 1 5 5v40l-1 29 4 2 24 16 11 8 12 8 43 29 11 8 4 6v8l-4 8-8 5h-9l-10-6-6-3 1 49 4 2 13 10 12 11 5 6 2 5v13l-5 10-12 14-10 14-7 12-2 3v97l2 1 2-11 5-13 8-14 8-10 9-10 12-10 4-1-12 18-8 17-9 21-8 15 10 4 2-5 9-11 12-11 12-7 13-4h10l-2 6-11 12-10 9-17 11-6 4 23 10 19 11 5 5-13-2-28-4-38-3-25-1h-61l-49 2-37 2h-80l-86-4h-105l-51 3-34 4-16 3-4-1 11-8 25-13 7-2v-2l-5-2-16-10-10-8-11-11-5-8v-3h8l13 4 10 6 11 9 9 10 6 9 8-1-18-33-10-17-8-12-5-6 1-2 11 9 9 10 10 13 12 21 6 13h7l-4-10-7-15-8-20-8-15-2-4 7 4 8 7 7 8 7 10 8 17 3 11v3h3l-1-213v-31l-14 9h-10l-6-4-4-5-1-2v-10l3-6 16-11 12-8 25-17 28-19 19-13 31-21 19-13 31-21 24-16 11-8 27-18z" fill="#313337"/>
<path transform="translate(512,278)" d="m0 0 7 4 18 13 11 7 23 16 54 36 11 8 24 16 43 29 25 17 2 2v46l-5-2-14-10-10-6-2-1h-8l-6 4-5 4-9-3-3-2v-68h-3v67l-9-2-27-8-15-3-2-1-4-13-2-3v-78h-3v76h-12l-31 4-40 7h-6v-146l-3 1-1 147-10 6-6 9-1 2h-2l-6-18-8-15-3-2h-7l-9 6-13 13-10 14-10 18-2 4h-19l-14 2-19 6-9 5-5-1-13-10-16-10-17-9-16-4v-27l43-29 16-11 12-8 25-17 15-10 13-9 15-10 37-25 22-15 16-11z" fill="#E9EFF1"/>
<path transform="translate(469,422)" d="m0 0 5 1 4 6 7 19 5 25 1 10v15l-1 18 8 13 6 13 1 5-5 2h-16l5 4 12 5-3 3-6 3 5 3 10 2-2 6-6 7-12 6-9 1v2l-21 4-17 4 12-2 27-4 7 1 10 2-3 5-7 7-5 1-12-2-14-1h-12l24 2 13 2v2l-11 6-9-1-20-7v2l11 3 12 5-4 4-18 11-15 7-12 3h-20l-17-3-17-2-4-3 8-7 9-7-11 7-8 6-4 1-12-5-1-3 18-6 20-6-10 2-27 8-8 1-3-3v-2l8-4 26-6 12-2-13 1-18 4h-5l1-4-13 1-8-3-6-6 1-4 6-4 6-7h-10l-1-2 8-7 4-5-1-1-10 5-8 1 1-16 4-15 1-4-9-17-9-25-4-20v-21l2-4 5-1 13 4 16 8 15 9 18 14 9-3 7-3h3v19l2 10 3 8v-11l3-21 2-7h1v12l2 12 3 8 1-17 4-16 1-2 2 1-1 5v19l3 12 2-22 5-16 14-1 8-16 10-16 12-14 10-9z" fill="#E8EEF0"/>
<path transform="translate(285,493)" d="m0 0h1l1 181 6-1 1-150h1v152l18-3 18-2 2-2v2h4l2-3v3l6-1h67l67 4h13l9 1h48l15-1 24-1 38-2h47l2-4v5h11l25 3 18 3h4l4-1 1-82h1l1 85 2 1 2-11 5-13 8-14 8-10 9-10 12-10 4-1-12 18-8 17-9 21-8 15 10 4 2-5 9-11 12-11 12-7 13-4h10l-2 6-11 12-10 9-17 11-6 4 23 10 19 11 5 5-13-2-28-4-38-3-25-1h-61l-49 2-37 2h-80l-86-4h-105l-51 3-34 4-16 3-4-1 11-8 25-13 7-2v-2l-5-2-16-10-10-8-11-11-5-8v-3h8l13 4 10 6 11 9 9 10 6 9 8-1-18-33-10-17-8-12-5-6 1-2 11 9 9 10 10 13 12 21 6 13h7l-4-10-7-15-8-20-8-15-2-4 7 4 8 7 7 8 7 10 8 17 3 11v3h3z" fill="#353F3A"/>
<path transform="translate(469,422)" d="m0 0 5 1 4 6 7 19 5 25 1 10v15l-1 18 8 13 6 13 1 5-5 2h-16l5 4 12 5-3 3-6 3 5 3 10 2-2 6-6 7-12 6-9 1v2l-3 1h-9l-6-8-7-6-10-4 4-2 10-4 6-5 6-10 3-8-3 1h-8l-4-1 1 9-3 7-5 5-5 3-16 3-6 4h-3l-4-1-4-12-1-5v-15l2-13v-8l-3-11-4-4v-11l5-16 14-1 8-16 10-16 12-14 10-9z" fill="#F6CDA3"/>
<path transform="translate(295,457)" d="m0 0 10 2 16 7 17 10 11 8 10 8 9-3 7-3h3v19l2 12h-2l-1 7v8l10 22 2 9v7l-1 6v7l-6-2h-8l-5 1h-12l-8-6-2-5v-7l-6 4-5 4 7 8 8 4 3 1h15l-4 5-5 4-6 12-1 7-11 3h-5l1-4-13 1-8-3-6-6 1-4 6-4 6-7h-10l-1-2 8-7 4-5-1-1-10 5-8 1 1-16 4-15 1-4-9-17-9-25-4-20v-21l2-4z" fill="#F6CDA3"/>
<!-- <path transform="translate(510,248)" d="m0 0 6 1 14 10 15 10 19 13 35 24 43 29 53 36 47 32 22 15 4 4-1 8-4 3h-6l-10-7-9-9-15-10-16-11-31-21-23-16-36-24-19-13-24-16-17-12-12-8-22-15-9-6-5 1-10 7-12 8-10 7-12 8-56 38-33 22-14 10-24 16-13 9-22 15-21 14-3 5-13 9-5-1-4-5v-7l18-13 18-12 44-30 15-10 10-7 31-21 19-13 12-8 22-15 47-32 12-8z" fill="#E9EFF1"/> -->
<path transform="translate(625,526)" d="m0 0h7l6 4 4 6 13 40 5 15 3 15v23l-4 9-4 5h-2v2l-3 1h-7l-8-3-10-8-10-10v-7l2-5 14-2 10-4 6-5 3-6v-7l-4-6-6-4-26-8-5-1h-8l-7 4-3 6v8l3 8 8 9 9 6-1 7-3 5-13 4-5 1h-16l-5-2v-2l-4-2-3-4-1-3v-8l8-20 7-10 9-11 10-10 7-8 10-10 7-8z" fill="#706E63"/>
<path transform="translate(712,559)" d="m0 0h2l4 16 5 9 2 2 5 2v89l-3 1-30-5-22-2-3-21v-14l8-23 12-8 7-9 6-16z" fill="#E9EFF1"/>
<path transform="translate(583,429)" d="m0 0h5l-19 19-12 19-10 20-9 15-9 12-11 11-6 1-4-8-3-34-5-19v-13l6-9 6-3 10-2 11-1v26l7-12 8-12 4-5 5-2 12-2z" fill="#706E63"/>
<path transform="translate(708,463)" d="m0 0 5 2 14 11 7 6 2 5 1 6 1 26-1 3 5-5 7-14 2-6 6 3 10 8 4 6v7l-5 8-13 16-9 17-8 16-5 4-5-2-4-10-4-20-1-37-2-22-6-21z" fill="#706E63"/>
<path transform="translate(499,607)" d="m0 0 5 4 4 5-2 5-9 17-12 19-8 12-3 4h-12l-50-3h-73l2-12 4-10 2-3 9 3 11 5 12 3 17 2h14l16-2 18-5 21-10 10-8 7-7 10 3 3 1v-2l-10-3 2-4 9-11z" fill="#F6CCA2"/>
<path transform="translate(469,425)" d="m0 0 4 1 5 10 5 15 3 15 1 8v18l-2 14-4 4-7-8-15-11-16-7-10-3-2-1-1-5 8-16 7-11 11-13 10-9z" fill="#D9B587"/>
<path transform="translate(295,460)" d="m0 0 9 1 12 5 18 10 4 3 6 1 12 10-3 1-2 4-3 1-1 4-9 7-7 8-10 18-3 6h-3l-8-11-6-12-6-19-2-7-1-10v-14l1-4h2z" fill="#D9B587"/>
<path transform="translate(295,521)" d="m0 0 2 2 8 16 2 6-4 13-2 10v24l4 14 6 11 7 8 6 4-2 4-15 6h-2v2l22-9 11 7 4 3-1 4-8 8-1 2 4-2-4 16-1 1-32 4h-4l-1-153z" fill="#E9EFF1"/>
<path transform="translate(535,592)" d="m0 0h2l3 45v11h2l2-6 2-3h2l1 20 8-6 3 9 3 12-14 1h-48l-9-1 6-8 10-16 8-15 14-31z" fill="#706E63"/>
<path transform="translate(469,638)" d="m0 0v3l-10 11-16 11-14 7h-90l2-12 4-10 2-3 9 3 11 5 12 3 17 2h14l16-2 18-5 21-10z" fill="#D9B587"/>
<path transform="translate(622,280)" d="m0 0h27l9 1v20l-1 35-5-2-22-15-7-5-1-17z" fill="#E9EFF1"/>
<path transform="translate(496,488)" d="m0 0 2 3 3 11 3 18 4 9 3 2h7l9-6 7-6-1 7-5 18v14l2 6-1 6-11 27-6 12h-3l-6-7 1-4 5-8 7-1v-2h-5l2-9 1-5v-17l-3-12-7-16-7-10-2-3v-25z" fill="#E9EFF1"/>
<path transform="translate(660,466)" d="m0 0h9l8 4 6 7 2 5v8l-4 8-6 5-4 2h-13l-8-5-4-5-2-5v-8l4-9 6-5z" fill="#706E63"/>
<path transform="translate(614,452)" d="m0 0 11 2 8 7 3 5 1 4v7l-4 8-8 6-2 1h-10l-6-3-7-6-2-6h-2v-10l3-6 5-5 5-3z" fill="#706E63"/>
<path transform="translate(546,540)" d="m0 0 9 1 7 5 5 8 1 4v13l-4 15-4 7-4-2-12-14-7-12-1-4v-10l3-6 4-4z" fill="#E9EFF1"/>
<path transform="translate(360,552)" d="m0 0 9 1 9 5 6 7 4 11v7l-6-2h-8l-5 1h-12l-8-6-2-5v-7l-6 4-3 3h-6v-4l12-9 10-5z" fill="#3B3D3F"/>
<path transform="translate(441,538)" d="m0 0h15l15 5v2l-2 1h-8l-4-1 1 9-3 7-5 5-5 3-16 3-6 4-2 1-1-2 1-15 4-10 7-8z" fill="#343739"/>
<path transform="translate(592,490)" d="m0 0h10l6 4 3 4 1 10-3 11-4 4-2-9-3-5-6-3h-9l-13 6-6 1-6-2-2-1 1-4 16-9 13-6z" fill="#706E63"/>
<path transform="translate(410,479)" d="m0 0h13v1h-12l-4 16-2 25-2-3-3-12v-19l1-5-1 1-4 16-1 18-2-1-4-12-1-12v-5l-3 15-1 18v5l-2-2-4-11-1-7v-17l1-2-2-1 21-5z" fill="#706E63"/>
<path transform="translate(683,574)" d="m0 0 8 1 4 4 1 5-3 8-8 10-12 11-5 2v-26l3-7 6-6z" fill="#E9EFF1"/>
<path transform="translate(665,510)" d="m0 0h8l9 6 12 18 6 10-2 4-7-2-5-6-7-10-4-3-10 1-6 4-5 5v-9l4-11 5-6z" fill="#706E63"/>
<path transform="translate(409,586)" d="m0 0 9 1 1 1-1 7-8 11 1 5 5 5 10 5 6 2v1h-10l-10-4-4-1-8 7-4 2h-6l4-3 7-6 4-8-1-4-12-8-2-3 1-5 11-4z" fill="#3C3E3F"/>
<path transform="translate(332,487)" d="m0 0 6 1 6 5 2 3-1 5-11 10-7 11-7 12h-1l-3-18-3-12 1-5 3-2h11l15 1-11-10z" fill="#353739"/>
<path transform="translate(347,645)" d="m0 0 9 3 5 3v2l4 2 8 6 10 6v1l-27 1-17 1 2-12 4-10z" fill="#F7CDA3"/>
<path transform="translate(464,470)" d="m0 0h5l3 6 4 16 5 13-1 3-11-10-14-9-11-5 2-4 15-9z" fill="#35373A"/>
<path transform="translate(604,630)" d="m0 0h8l8 7 6 7-6 3h-15l-11-4-8-6-2-3z" fill="#706E63"/>
<path transform="translate(600,576)" d="m0 0h8l15 3 17 5 5 4 1 7-3 5h-3l-2-6-10-4-26-4-4-3v-5z" fill="#333E39"/>
<path transform="translate(441,538)" d="m0 0h15l15 5v2l-2 1h-8l-4-1v8h-3l-1-8-7-1 2 6-1 7-3 3h-7l-2-1 2-8v-2l-5-1 1-5 3-3z" fill="#303336"/>
<path transform="translate(592,490)" d="m0 0h10l6 4 3 4 1 10-3 9h-1l-1-10-2-4-7-4h-13l-14 5-10 3v-2l14-8 13-6z" fill="#E9EFF1"/>
<path transform="translate(647,490)" d="m0 0h12l13 4 8 4-5 5-4 2h-13l-8-5-4-5-1-4z" fill="#E9EFF1"/>
<path transform="translate(548,320)" d="m0 0h3v93l-1 2h-3v-67z" fill="#484947"/>
<path transform="translate(436,336)" d="m0 0 3 1v92h-4v-65z" fill="#4C4C4A"/>
<path transform="translate(597,476)" d="m0 0h13l10 3 11 7-4 4-4 2h-10l-6-3-7-6z" fill="#E9EFF1"/>
<path transform="translate(665,510)" d="m0 0h8l9 6 12 18 5 9-1 2-8-10-7-9-9-6h-9l-6 5-3 6h-1l1-9 4-8z" fill="#E9EFF1"/>
<path transform="translate(474,316)" d="m0 0h3v94l-3 1-1-2v-35z" fill="#4A4A48"/>
<path transform="translate(479,593)" d="m0 0 7 1 10 2-3 5-7 7-5 1-12-2-1-1-1-11z" fill="#F4CBA1"/>
<path transform="translate(405,369)" d="m0 0h3l1 2v30l-1 63h-3z" fill="#454A45"/>
<path transform="translate(358,390)" d="m0 0 3 1v56l-1 27h-3v-83z" fill="#434643"/>
<path transform="translate(446,544)" d="m0 0 7 1 1 2v11l-4 6-6 3-8-1-6-4-2-3 1-6 4-5 4 1 1 5-3 5h9l3-4z" fill="#706E63"/>
<path transform="translate(392,592)" d="m0 0 1 3 5 1 5 5 5 3v-2h3l-1 8 5 5 8 5 9 3v1h-10l-10-4-4-1-8 7-4 2h-6l4-3 7-6 4-8-1-4-12-8-1-1v-5z" fill="#414342"/>
<path transform="translate(370,560)" d="m0 0 5 2 2 6-3 7-4 4-3 1h-9l-5-3h-3l-2-5 1-1v-6l1-2h2v-2h4l1 9 2 3h7l3-7z" fill="#706E63"/>
<path transform="translate(637,370)" d="m0 0h2l1 2v63l-1 6-3-1v-69z" fill="#53534E"/>
<path transform="translate(665,388)" d="m0 0h3v64l-2 4-3-1h2z" fill="#363A3B"/>
<path transform="translate(295,457)" d="m0 0 10 2 16 7 17 10 3 2v2l-4-1-17-10-13-6-12-3v2h-2v18l1 17-2-2-2-12v-21l2-4z" fill="#F4CDA5"/>
<path transform="translate(570,589)" d="m0 0 2 1-4 15v13l1 7-5-3-3-4-1-3v-8l4-10z" fill="#E9EFF1"/>
<path transform="translate(348,616)" d="m0 0h4l1 6-18 6h-5l-3-3v-2l8-4z" fill="#D9B587"/>
<path transform="translate(388,484)" d="m0 0h1v12l2 15-2 2-3 15h-2l-1-16 3-21z" fill="#EDC69B"/>
<path transform="translate(408,618)" d="m0 0 4 1 9 4-2 4-6 2h-11l-3-1 2-4z" fill="#F5CCA2"/>
<path transform="translate(402,590)" d="m0 0h12l-4 6-2 8-4-1-4-5-6-4 3-3z" fill="#D9B587"/>
<path transform="translate(505,445)" d="m0 0 2 1-2 8v15l3 15v6l-2-1-6-24v-13l4-6z" fill="#E9EFF1"/>
<path transform="translate(400,481)" d="m0 0 2 1-1 5v19l1 8-6-2v6h-1v-19l4-16z" fill="#F2CAA0"/>
<path transform="translate(572,517)" d="m0 0 2 3 3 7 6 4 9 1 7-2-2 4-5 3h-9l-8-5-3-5-1-7z" fill="#706E63"/>
<path transform="translate(657,545)" d="m0 0 7 6 4 2 8-1 6-4 2-1-1 5-6 5-2 1h-9l-7-4-2-3z" fill="#706E63"/>
<path transform="translate(407,398)" d="m0 0h1v66h-3l1-49z" fill="#303536"/>
<path transform="translate(349,625)" d="m0 0h3l2 7v4l-4 1-12-5-1-3z" fill="#DDB88C"/>
<path transform="translate(788,611)" d="m0 0 2 1-10 13-3 6-2-3-5 1-3 2 2-4 8-8z" fill="#444B45"/>
<path transform="translate(392,592)" d="m0 0 1 3 5 1 5 5 5 3v-2h3l-1 9h-2v-3l-4-1-12-8-1-1v-5z" fill="#3B3E3E"/>
<path transform="translate(463,426)" d="m0 0m-1 1m-1 1m-2 1 2 1-7 8-8 10-10 16-3 3-1-2 7-12 9-12z" fill="#F3CCA3"/>
<path transform="translate(661,622)" d="m0 0h1v8l-3 8-4 5-3 1-5-1 5-5 5-8z" fill="#E9EFF1"/>
<path transform="translate(576,395)" d="m0 0h2l1 2v20l-1 3h-3v-24z" fill="#4D4E4B"/>
<path transform="translate(295,457)" d="m0 0 4 2h-5l-1 7v14l1 17-2-2-2-12v-21l2-4z" fill="#E9EFF1"/>
<path transform="translate(346,647)" d="m0 0 2 1-3 16v6h-6l2-12 4-10z" fill="#E9EFF1"/>
<path transform="translate(367,610)" d="m0 0h7l-1 2-25 5-11 2-2-1 2-4v2l23-5z" fill="#50514D"/>
<path transform="translate(372,616)" d="m0 0h5l-2 2-36 11-4-2 23-7z" fill="#565751"/>
<path transform="translate(439,605)" d="m0 0h16l20 2 8 2-3 3v-2l-13-1-24-2z" fill="#5B5E54"/>
<path transform="translate(467,609)" d="m0 0 13 1v2l-11 6h-3z" fill="#E0BA8D"/>
<path transform="translate(600,576)" d="m0 0h6l2 2v5l-2 2h-6l-2-2v-5z" fill="#E9EFF1"/>
<path transform="translate(474,316)" d="m0 0h3v24l-3 3z" fill="#313737"/>
<path transform="translate(383,443)" d="m0 0 2 1v25h-3v-25z" fill="#444644"/>
<path transform="translate(637,406)" d="m0 0 3 1v28l-1 6h-2z" fill="#353839"/>
<path transform="translate(457,549)" d="m0 0h1l-1 9-5 7-7 4-7 1 2-1v-2l8-3 4-4 2-7h3z" fill="#434A43"/>
<path transform="translate(360,536)" d="m0 0h6l7 6 1 5-9-6-7-2v-2z" fill="#454645"/>
<path transform="translate(429,524)" d="m0 0h6l-1 3-5 3-6 9h-1l1-8z" fill="#414342"/>
<path transform="translate(467,592)" d="m0 0 3 1 1 2-24 4-8 1 1-2z" fill="#53564F"/>
<path transform="translate(440,610)" d="m0 0 11 3 17 5-4 4-2-1-9-4-13-5z" fill="#626359"/>
<path transform="translate(402,587)" d="m0 0h6v1l7 1-1 2h-12l-7 2v2h-2l-1-2-2 3 1-5z" fill="#52544E"/>
<path transform="translate(374,574)" d="m0 0v3l-2 2 2 2-5 1h-12l-5-3 1-3 5 3h9l5-3z" fill="#444B44"/>
<path transform="translate(332,487)" d="m0 0 6 1 6 5 2 3-1 5-5-1 3-2-11-10z" fill="#4F504C"/>
<path transform="translate(445,467)" d="m0 0h3l-8 16h-2l1-7z" fill="#4F514C"/>
<path transform="translate(372,622)" d="m0 0 2 1-11 9-6 5 1 2-4-1-2-2 9-6z" fill="#54564F"/>
<path transform="translate(324,629)" d="m0 0 1 2-1 3-16 7h-3v-2l17-7z" fill="#64645A"/>
<path transform="translate(433,548)" d="m0 0 4 1 1 5-5 3-2-1-1-4z" fill="#E8ECEC"/>
<path transform="translate(370,515)" d="m0 0h2l1 15-4-3-1-6z" fill="#706E63"/>
<path transform="translate(432,542)" d="m0 0 2 1-1 5-3 5h-2l-1-2-2-1z" fill="#424743"/>
<path transform="translate(464,541)" d="m0 0 7 2v2l-2 1h-8l-4-1-1 2v-3l8-2z" fill="#494D48"/>
<path transform="translate(416,508)" d="m0 0 4 2 1 2v7l-3 4z" fill="#706E63"/>
<path transform="translate(548,320)" d="m0 0h3v31h-1v-27h-2z" fill="#333C38"/>
<path transform="translate(464,607)" d="m0 0h11l8 2-3 3v-2l-13-1z" fill="#4D504B"/>
<path transform="translate(348,616)" d="m0 0h4l1 6-5 1-2-5z" fill="#F4CBA0"/>
<path transform="translate(299,458)" d="m0 0 6 1 7 3v2l-17-4-1 2v-3z" fill="#F4CCA2"/>
<path transform="translate(463,426)" d="m0 0m-1 1m-1 1m-2 1 2 1-7 8-3 1 2-4z" fill="#F0CAA2"/>
<path transform="translate(408,618)" d="m0 0 4 1-3 1v3l-7 3-2-1z" fill="#D9B587"/>
<path transform="translate(336,614)" d="m0 0 1 2 11-2v3l-11 2-2-1z" fill="#5A5952"/>
<path transform="translate(352,561)" d="m0 0h4v6l-5 1z" fill="#E4DACB"/>
<path transform="translate(582,514)" d="m0 0 4 2v4l-4 1-2-2 1-4z" fill="#E9EFF1"/>
<path transform="translate(400,481)" d="m0 0 2 1-2 18h-1l-1-8-1-2z" fill="#E0BA8D"/>
<path transform="translate(413,595)" d="m0 0 1 2 2 1-4 6-1-2h-2v-6l2 2z" fill="#454C45"/>
<path transform="translate(665,536)" d="m0 0 5 1-1 4-3 1-2-1z" fill="#E9EFF1"/>
<path transform="translate(455,616)" d="m0 0 8 1 5 1-4 4-2-1-7-4z" fill="#4F524C"/>
<path transform="translate(485,625)" d="m0 0 6 1 4 2v2l-9-2-2-2z" fill="#51534D"/>
<path transform="translate(369,558)" d="m0 0h5l2 2-1 4v-2l-5-2v6h-1z" fill="#323D38"/>
</svg>
